<?xml version="1.0" encoding="utf-8"?>
<!-- Generator: Adobe Illustrator 27.8.0, SVG Export Plug-In . SVG Version: 6.00 Build 0)  -->
<svg version="1.1" id="Layer_1" xmlns="http://www.w3.org/2000/svg" xmlns:xlink="http://www.w3.org/1999/xlink" x="0px" y="0px"
	 viewBox="0 0 2840.1 2435.9" style="enable-background:new 0 0 2840.1 2435.9;" xml:space="preserve">
<style type="text/css">
	.st0{fill:#00ED85;}
</style>
<g>
	<path class="st0" d="M2638.5,1102.8c-282,0-540-91.1-707.8-264.6c-2.1-2.1-4.1-4.6-6.6-6.6c-165.2-173.9-225.7-412.1-181-656.8
		L1775.4,0h-263l-32.3,174.8c-44.7,244.3-193,482.9-422.4,656.8c-2.9,2.1-5.8,4.6-9.1,6.6c-231.5,173.1-523,264.2-805.1,264.2H41
		L0,1330.6h199.2c280.8,0,537.5,91.1,706.1,262.6c3.3,3.3,6.2,6.2,9.5,9.5c166.5,174.4,227.4,413.3,182.2,658.5l-32.3,174.8h260.9
		l32.3-174.8c45.1-245.2,194.2-484.5,424.5-658.5c4.1-3.3,8.7-6.6,12.8-9.5c231.9-171.4,521.8-262.6,802.6-262.6h199.2l43.1-228.2
		h-202.5L2638.5,1102.8z"/>
</g>
</svg>
